<svg xmlns="http://www.w3.org/2000/svg" xmlns:xlink="http://www.w3.org/1999/xlink" viewBox="0 0 32 32"><defs><style>.cls-1,.cls-14{fill:none;}.cls-2{fill:#f2ece8;}.cls-3{clip-path:url(#clip-path);}.cls-4{fill:#c7944e;}.cls-15,.cls-4{stroke:#000;}.cls-14,.cls-15,.cls-4{stroke-miterlimit:10;}.cls-14,.cls-4{stroke-width:0.5px;}.cls-5{fill:#d1bfa9;}.cls-15,.cls-6{fill:#dbc4b1;}.cls-7{fill:#d1b094;}.cls-8{fill:#b3967e;}.cls-9{fill:#69512b;}.cls-10{fill:#302512;}.cls-11{fill:#d1c8b8;}.cls-12{fill:#eb9015;}.cls-13{clip-path:url(#clip-path-2);}.cls-14{stroke:#0f71cf;}.cls-15{stroke-width:0.25px;}</style><clipPath id="clip-path"><circle class="cls-1" cx="16" cy="16" r="16"/></clipPath><clipPath id="clip-path-2"><polygon class="cls-1" points="23.41 13.31 17.75 11.32 23.57 3.83 23.41 13.31"/></clipPath></defs><g id="Layer_2" data-name="Layer 2"><circle class="cls-2" cx="16" cy="16" r="16"/><g class="cls-3"><path class="cls-4" d="M15.24,10.63c10-.71,12.78,6.79,11.47,16.85s.38,18.54-8.9,19C6.23,47.11,3.6,39.85,4.33,30S4.65,11.38,15.24,10.63Z"/><path class="cls-5" d="M15.64,22.33c5.74.58,8.54,1.35,7.25,11.06C22,40.1,20,44,15.59,44,10,44.06,6.85,39.5,7.48,31.7,8.25,22,10.49,21.82,15.64,22.33Z"/><path class="cls-6" d="M16.87,12.68c6,.28,8.22,2.64,6.78,6.64-1.16,3.19-2,6.22-7.41,5.63-6-.64-6.5-3.34-7.2-6.86C8.21,13.91,11.79,12.44,16.87,12.68Z"/><path class="cls-7" d="M16.17,24.13c-3.61-.19-4.9-3.61-5.3-6.11s.88-3.9,2.15-4A6.66,6.66,0,0,1,16,15.23a1.93,1.93,0,0,0,1.62.18c1.05-.35,2.82-.79,3.91-.24,1.62.82.37,4.37-.26,5.51S19.62,24.31,16.17,24.13Z"/><path class="cls-8" d="M22.22,17.68a10.18,10.18,0,0,1-1,3c-.56,1-1.41,3.13-4.08,3.42l.47-1.65A8.31,8.31,0,0,0,22.22,17.68Z"/><path class="cls-9" d="M18.21,23.64a2.28,2.28,0,0,1-2.12.54,2.35,2.35,0,0,1-2-.87c-.43-.73.87-2.27,2.26-2.16S18.76,23,18.21,23.64Z"/><circle class="cls-10" cx="12.83" cy="15.79" r="0.5"/><ellipse class="cls-11" cx="12.61" cy="15.7" rx="0.2" ry="0.06" transform="translate(-5.76 23.94) rotate(-75.39)"/><circle class="cls-10" cx="20.75" cy="16.63" r="0.5"/><ellipse class="cls-11" cx="20.53" cy="16.53" rx="0.2" ry="0.06" transform="matrix(0.25, -0.97, 0.97, 0.25, -0.65, 32.23)"/><path class="cls-12" d="M23.41,13.57l-.09,0-5.65-2a.25.25,0,0,1-.16-.17.24.24,0,0,1,0-.22l5.82-7.49a.25.25,0,0,1,.2-.1h.08a.25.25,0,0,1,.17.24l-.16,9.49a.23.23,0,0,1-.11.2A.24.24,0,0,1,23.41,13.57Z"/><path d="M23.57,3.83l-.16,9.49-5.66-2,5.82-7.49m0-.5a.49.49,0,0,0-.39.19L17.35,11a.52.52,0,0,0-.08.45.49.49,0,0,0,.31.33l5.66,2a.49.49,0,0,0,.45-.06.56.56,0,0,0,.22-.41l.16-9.48a.5.5,0,0,0-.33-.48.51.51,0,0,0-.17,0Zm0,1h0Z"/><g class="cls-13"><path class="cls-14" d="M24.52,14.17a18.27,18.27,0,0,1-7.65-6"/><path class="cls-14" d="M25.18,12.28a18.15,18.15,0,0,1-7.09-6.65"/><path class="cls-14" d="M25.85,10.4a18.33,18.33,0,0,1-6.49-7.25"/><path class="cls-14" d="M26.51,8.51A18.25,18.25,0,0,1,20.68.73"/></g><path class="cls-15" d="M10.34,14.7s-2.87-2.53-.88-3.64,3.2-1.21,4.06,2.12"/><path class="cls-15" d="M23.5,16s3.4-1.61,1.82-3.2-2.69-2-4.41.9"/></g></g></svg>