<svg xmlns="http://www.w3.org/2000/svg" xmlns:xlink="http://www.w3.org/1999/xlink" viewBox="0 0 32 32"><defs><style>.cls-1{fill:none;}.cls-2{fill:#f2ece8;}.cls-3{clip-path:url(#clip-path);}.cls-4{fill:#c7944e;}.cls-12,.cls-13,.cls-14,.cls-15,.cls-4{stroke:#000;}.cls-15,.cls-4{stroke-miterlimit:10;}.cls-12,.cls-13,.cls-14,.cls-4{stroke-width:0.5px;}.cls-5{fill:#d1bfa9;}.cls-15,.cls-6{fill:#dbc4b1;}.cls-7{fill:#d1b094;}.cls-8{fill:#b3967e;}.cls-9{fill:#69512b;}.cls-10{fill:#302512;}.cls-11{fill:#d1c8b8;}.cls-12{fill:#d6a767;}.cls-12,.cls-13,.cls-14{stroke-linecap:round;stroke-linejoin:round;}.cls-13{fill:#f7a73a;}.cls-14{fill:#0f2030;}.cls-15{stroke-width:0.25px;}</style><clipPath id="clip-path"><circle class="cls-1" cx="16.03" cy="16" r="16"/></clipPath></defs><g id="Layer_4" data-name="Layer 4"><circle class="cls-2" cx="16" cy="16.01" r="16"/><g class="cls-3"><path class="cls-4" d="M15.81,10.69c10-.69,12.77,6.82,11.43,16.88s.33,18.54-8.95,19C6.71,47.15,4.1,39.88,4.85,30.05S5.22,11.42,15.81,10.69Z"/><path class="cls-5" d="M16.19,22.39c5.73.59,8.53,1.37,7.21,11.07-.91,6.71-3,10.57-7.33,10.61-5.61,0-8.72-4.53-8.08-12.33C8.8,22,11,21.86,16.19,22.39Z"/><path class="cls-6" d="M17.44,12.74c6,.3,8.21,2.66,6.75,6.66-1.16,3.19-2,6.21-7.42,5.61-6-.66-6.49-3.35-7.18-6.88C8.77,14,12.35,12.49,17.44,12.74Z"/><path class="cls-7" d="M16.71,24.19c-3.62-.2-4.89-3.62-5.29-6.12s.89-3.9,2.16-4a6.8,6.8,0,0,1,2.94,1.18,1.92,1.92,0,0,0,1.62.18c1.05-.34,2.83-.78,3.91-.22,1.62.82.36,4.37-.28,5.5S20.15,24.38,16.71,24.19Z"/><path class="cls-8" d="M22.78,17.76a10,10,0,0,1-1,3c-.56,1-1.42,3.13-4.08,3.41l.47-1.65A8.3,8.3,0,0,0,22.78,17.76Z"/><path class="cls-9" d="M18.75,23.71a2.3,2.3,0,0,1-2.12.53,2.35,2.35,0,0,1-2-.87c-.43-.74.88-2.27,2.27-2.15S19.3,23.06,18.75,23.71Z"/><circle class="cls-10" cx="13.39" cy="15.84" r="0.5"/><ellipse class="cls-11" cx="13.17" cy="15.75" rx="0.2" ry="0.06" transform="translate(-5.41 24.47) rotate(-75.25)"/><circle class="cls-10" cx="21.31" cy="16.7" r="0.5"/><ellipse class="cls-11" cx="21.09" cy="16.61" rx="0.2" ry="0.06" transform="translate(-0.34 32.77) rotate(-75.25)"/><path class="cls-12" d="M20.62,10.88a20.89,20.89,0,0,0-7.41,1.21,20.72,20.72,0,0,0-6.33,4s-5.94.87.74-4.8c.82-.69,5,0,6.53-.06,5.93-1.56,6.47-.37,6.47-.37"/><path class="cls-13" d="M18.82,10.93l.1,0s-.78-2.73-3-2.35-1.47,3.12-1.47,3.12c-.4.12-.81.25-1.21.41a20.51,20.51,0,0,0-6.33,4S4.93,9.23,11.22,6.84s9.4,4,9.4,4A17.26,17.26,0,0,0,18.82,10.93Z"/><path class="cls-14" d="M18.92,10.91l-.1,0h0a20.48,20.48,0,0,0-4.34.75h0A3.66,3.66,0,0,1,14.3,11a21.28,21.28,0,0,1,4.33-.75A3.55,3.55,0,0,1,18.92,10.91Z"/><path class="cls-15" d="M10.9,14.75S8,12.2,10,11.1s3.2-1.2,4.05,2.14"/><path class="cls-15" d="M24.05,16.06s3.41-1.6,1.84-3.19-2.69-2-4.42.88"/></g></g></svg>