<svg xmlns="http://www.w3.org/2000/svg" xmlns:xlink="http://www.w3.org/1999/xlink" viewBox="0 0 32 32"><defs><style>.cls-1{fill:none;}.cls-2{fill:#f2ece8;}.cls-3{clip-path:url(#clip-path);}.cls-4{fill:#c7944e;stroke-width:0.5px;}.cls-12,.cls-4{stroke:#000;stroke-miterlimit:10;}.cls-5{fill:#d1bfa9;}.cls-12,.cls-6{fill:#dbc4b1;}.cls-7{fill:#d1b094;}.cls-8{fill:#b3967e;}.cls-9{fill:#69512b;}.cls-10{fill:#302512;}.cls-11{fill:#d1c8b8;}.cls-12{stroke-width:0.25px;}</style><clipPath id="clip-path"><circle class="cls-1" cx="16" cy="16" r="16"/></clipPath></defs><g id="Layer_7" data-name="Layer 7"><circle class="cls-2" cx="16" cy="16" r="16"/><g class="cls-3"><path class="cls-4" d="M15.71,10.69c10-.38,12.56,7.21,10.91,17.22s-.23,18.55-9.52,18.72c-11.59.23-14-7.12-12.93-16.92S5.11,11.1,15.71,10.69Z"/><path class="cls-5" d="M15.73,22.4c5.71.76,8.49,1.63,6.88,11.29C21.5,40.36,19.32,44.16,15,44.06c-5.61-.13-8.58-4.79-7.7-12.56C8.36,21.8,10.6,21.72,15.73,22.4Z"/><path class="cls-6" d="M17.28,12.79c6,.48,8.12,2.91,6.55,6.86-1.26,3.15-2.17,6.16-7.59,5.39-6-.84-6.39-3.55-7-7.1C8.58,13.74,12.2,12.39,17.28,12.79Z"/><path class="cls-7" d="M16.2,24.21c-3.61-.31-4.78-3.77-5.1-6.28s1-3.86,2.28-3.88a6.75,6.75,0,0,1,2.9,1.26,1.93,1.93,0,0,0,1.62.23c1.06-.31,2.84-.69,3.91-.1,1.59.87.23,4.38-.44,5.49S19.64,24.51,16.2,24.21Z"/><path class="cls-8" d="M22.46,18a9.69,9.69,0,0,1-1.1,3c-.59,1-1.51,3.08-4.18,3.28l.53-1.63A8.29,8.29,0,0,0,22.46,18Z"/><path class="cls-9" d="M18.25,23.8a2.31,2.31,0,0,1-2.13.46,2.32,2.32,0,0,1-2-.94c-.41-.74.94-2.23,2.33-2.07S18.83,23.16,18.25,23.8Z"/><circle class="cls-10" cx="13.14" cy="15.77" r="0.5"/><ellipse class="cls-11" cx="12.92" cy="15.67" rx="0.2" ry="0.06" transform="translate(-5.77 23.61) rotate(-73.5)"/><circle class="cls-10" cx="21.03" cy="16.87" r="0.5"/><ellipse class="cls-11" cx="20.81" cy="16.77" rx="0.2" ry="0.06" transform="translate(-1.18 31.95) rotate(-73.5)"/><path class="cls-12" d="M10.68,14.6S7.89,12,9.92,10.93s3.24-1.1,4,2.26"/><path class="cls-12" d="M23.79,16.31s3.45-1.49,1.93-3.14-2.62-2.1-4.44.76"/></g></g></svg>