<svg id="Layer_1" data-name="Layer 1" xmlns="http://www.w3.org/2000/svg" xmlns:xlink="http://www.w3.org/1999/xlink" viewBox="0 0 32 32"><defs><style>.cls-1,.cls-14{fill:none;}.cls-2{fill:#f2ece8;}.cls-3{clip-path:url(#clip-path);}.cls-4{fill:#c7944e;}.cls-15,.cls-4{stroke:#000;}.cls-14,.cls-15,.cls-4{stroke-miterlimit:10;}.cls-14,.cls-4{stroke-width:0.5px;}.cls-5{fill:#d1bfa9;}.cls-15,.cls-6{fill:#dbc4b1;}.cls-7{fill:#d1b094;}.cls-8{fill:#b3967e;}.cls-9{fill:#69512b;}.cls-10{fill:#302512;}.cls-11{fill:#d1c8b8;}.cls-12{fill:#0f71cf;}.cls-13{clip-path:url(#clip-path-2);}.cls-14{stroke:#eb9015;}.cls-15{stroke-width:0.25px;}</style><clipPath id="clip-path"><circle class="cls-1" cx="16" cy="16" r="16"/></clipPath><clipPath id="clip-path-2"><polygon class="cls-1" points="21.6 12.68 15.71 11.52 20.41 3.27 21.6 12.68"/></clipPath></defs><circle class="cls-2" cx="16" cy="16" r="16"/><g class="cls-3"><path class="cls-4" d="M13.13,11.19c9.75-2.13,13.62,4.9,13.76,15s3,18.3-6.1,20.11c-11.37,2.25-15-4.56-15.69-14.4S2.76,13.45,13.13,11.19Z"/><path class="cls-5" d="M15.2,22.72c5.76-.25,8.64.11,8.75,9.9.07,6.77-1.4,10.89-5.71,11.56C12.69,45,9,41,8.45,33.16,7.83,23.42,10,22.94,15.2,22.72Z"/><path class="cls-6" d="M15,13c6-.58,8.51,1.44,7.65,5.6C22,21.91,21.64,25,16.16,25.22c-6,.22-6.9-2.37-8.1-5.76C6.64,15.44,10,13.48,15,13Z"/><path class="cls-7" d="M16,24.42c-3.6.33-5.37-2.88-6.12-5.29s.31-4,1.57-4.23a6.8,6.8,0,0,1,3.07.74,1.94,1.94,0,0,0,1.63-.05c1-.5,2.68-1.19,3.84-.8,1.71.58,1,4.28.52,5.49S19.42,24.1,16,24.42Z"/><path class="cls-8" d="M21.05,17.17a10.08,10.08,0,0,1-.56,3.11c-.41,1.08-.95,3.3-3.55,4l.24-1.7A8.29,8.29,0,0,0,21.05,17.17Z"/><path class="cls-9" d="M17.93,23.65a2.31,2.31,0,0,1-2,.83,2.31,2.31,0,0,1-2.12-.57c-.54-.67.53-2.37,1.93-2.46S18.38,22.92,17.93,23.65Z"/><circle class="cls-10" cx="11.49" cy="16.64" r="0.5"/><ellipse class="cls-11" cx="11.25" cy="16.58" rx="0.2" ry="0.06" transform="translate(-6.48 25.91) rotate(-83.6)"/><circle class="cls-10" cx="19.44" cy="16.34" r="0.5"/><ellipse class="cls-11" cx="19.21" cy="16.28" rx="0.2" ry="0.06" transform="translate(0.89 33.55) rotate(-83.6)"/><path class="cls-12" d="M21.55,12.93l-5.89-1.17a.24.24,0,0,1-.17-.14.24.24,0,0,1,0-.23l4.69-8.24A.26.26,0,0,1,20.41,3h.05a.26.26,0,0,1,.2.21l1.19,9.41a.27.27,0,0,1-.08.22.27.27,0,0,1-.17.06Z"/><path d="M20.41,3.27l1.19,9.41-5.89-1.16,4.7-8.25m0-.5A.51.51,0,0,0,20,3l-4.69,8.24a.48.48,0,0,0,0,.45.5.5,0,0,0,.36.29l5.88,1.16h.1a.48.48,0,0,0,.34-.13.49.49,0,0,0,.15-.43L20.9,3.21a.49.49,0,0,0-.39-.43Z"/><g class="cls-13"><path class="cls-14" d="M22.82,13.37a18.22,18.22,0,0,1-8.43-4.86"/><path class="cls-14" d="M23.21,11.41a18.16,18.16,0,0,1-8-5.57"/><path class="cls-14" d="M23.6,9.45A18.23,18.23,0,0,1,16.14,3.2"/><path class="cls-14" d="M24,7.49A18.23,18.23,0,0,1,17.11.61"/></g><path class="cls-15" d="M8.86,15.92s-3.2-2.1-1.39-3.48,3-1.65,4.32,1.53"/><path class="cls-15" d="M22.07,15.31s3.14-2.08,1.35-3.43-3-1.61-4.24,1.52"/></g></svg>