<svg xmlns="http://www.w3.org/2000/svg" xmlns:xlink="http://www.w3.org/1999/xlink" viewBox="0 0 32 32"><defs><style>.cls-1{fill:none;}.cls-2{fill:#f2ece8;}.cls-3{clip-path:url(#clip-path);}.cls-4{fill:#c7944e;}.cls-12,.cls-13,.cls-4{stroke:#000;}.cls-12,.cls-4{stroke-miterlimit:10;}.cls-13,.cls-4{stroke-width:0.5px;}.cls-5{fill:#d1bfa9;}.cls-12,.cls-6{fill:#dbc4b1;}.cls-7{fill:#d1b094;}.cls-8{fill:#b3967e;}.cls-9{fill:#69512b;}.cls-10{fill:#302512;}.cls-11{fill:#d1c8b8;}.cls-12{stroke-width:0.25px;}.cls-13{fill:#7c9dbf;stroke-linecap:round;stroke-linejoin:round;}</style><clipPath id="clip-path"><circle class="cls-1" cx="16" cy="16" r="16"/></clipPath></defs><g id="Layer_5" data-name="Layer 5"><circle class="cls-2" cx="16" cy="16" r="16"/><g class="cls-3"><path class="cls-4" d="M12.91,10c9.58-2.8,13.93,3.94,14.77,14.05S32,42.1,23,44.53C11.8,47.56,7.7,41,6.33,31.26S2.72,13,12.91,10Z"/><path class="cls-5" d="M15.77,21.35c5.73-.65,8.63-.48,9.41,9.28.55,6.75-.64,11-4.89,11.92C14.82,43.79,10.8,40,9.76,32.24,8.47,22.57,10.63,21.94,15.77,21.35Z"/><path class="cls-6" d="M14.94,11.66c5.94-1,8.58.84,8,5.06-.46,3.36-.61,6.5-6.06,7.07-6,.63-7-1.89-8.48-5.19C6.72,14.69,9.92,12.5,14.94,11.66Z"/><path class="cls-7" d="M16.67,23c-3.58.57-5.56-2.5-6.47-4.85s0-4,1.26-4.33a6.71,6.71,0,0,1,3.12.52,2,2,0,0,0,1.63-.16c.95-.56,2.59-1.37,3.77-1.06,1.75.46,1.28,4.19.9,5.44S20.07,22.45,16.67,23Z"/><path class="cls-8" d="M21.22,15.42a9.8,9.8,0,0,1-.34,3.14c-.33,1.11-.72,3.36-3.26,4.2l.11-1.71A8.3,8.3,0,0,0,21.22,15.42Z"/><path class="cls-9" d="M18.56,22.09a2.33,2.33,0,0,1-2,1,2.33,2.33,0,0,1-2.16-.43c-.58-.62.38-2.4,1.76-2.58S19,21.34,18.56,22.09Z"/><circle class="cls-10" cx="11.64" cy="15.55" r="0.5"/><ellipse class="cls-11" cx="11.41" cy="15.51" rx="0.2" ry="0.06" transform="translate(-4.57 26.25) rotate(-87.57)"/><circle class="cls-10" cx="19.56" cy="14.7" r="0.5"/><ellipse class="cls-11" cx="19.32" cy="14.66" rx="0.2" ry="0.06" transform="translate(3.86 33.34) rotate(-87.57)"/><path class="cls-12" d="M9,15s-3.34-1.87-1.62-3.37,2.87-1.86,4.41,1.22"/><path class="cls-12" d="M22.11,13.49s3-2.29,1.11-3.51-3-1.41-4.13,1.81"/><path class="cls-13" d="M18.87,25.05a12.14,12.14,0,0,0-.66,1.46,8.42,8.42,0,0,0-.43,1.39l-1.94.15a8.12,8.12,0,0,0-.64-1.3,12.79,12.79,0,0,0-.88-1.35l.89-.9,2.65-.2Z"/><polygon class="cls-13" points="19.5 32.81 17.3 34.32 14.9 33.17 15.84 28.05 17.78 27.9 19.5 32.81"/></g></g></svg>