<?xml version="1.0" encoding="utf-8"?>
<!-- Generator: Adobe Illustrator 25.4.1, SVG Export Plug-In . SVG Version: 6.00 Build 0)  -->
<svg version="1.1" id="Layer_4" xmlns="http://www.w3.org/2000/svg" xmlns:xlink="http://www.w3.org/1999/xlink" x="0px" y="0px"
	 viewBox="0 0 64 64" style="enable-background:new 0 0 64 64;" xml:space="preserve">
<style type="text/css">
	.st0{clip-path:url(#SVGID_00000162354064691183441110000008231003390345289367_);fill:#8DD3E7;}
	
		.st1{clip-path:url(#SVGID_00000162354064691183441110000008231003390345289367_);fill:#F2CF9D;stroke:#000000;stroke-miterlimit:10;}
	
		.st2{clip-path:url(#SVGID_00000162354064691183441110000008231003390345289367_);fill:#C7944E;stroke:#000000;stroke-linecap:round;stroke-miterlimit:10;}
	.st3{clip-path:url(#SVGID_00000162354064691183441110000008231003390345289367_);fill:#DBC4B1;}
	
		.st4{clip-path:url(#SVGID_00000162354064691183441110000008231003390345289367_);fill:none;stroke:#000000;stroke-linecap:round;stroke-miterlimit:10;}
	
		.st5{clip-path:url(#SVGID_00000162354064691183441110000008231003390345289367_);fill:#DBC4B1;stroke:#000000;stroke-linecap:round;stroke-miterlimit:10;}
	.st6{clip-path:url(#SVGID_00000162354064691183441110000008231003390345289367_);fill:#D1B094;}
	
		.st7{clip-path:url(#SVGID_00000162354064691183441110000008231003390345289367_);fill:#211A0C;stroke:#000000;stroke-width:0.25;stroke-linecap:round;stroke-miterlimit:10;}
	.st8{clip-path:url(#SVGID_00000162354064691183441110000008231003390345289367_);fill:#F0EBE6;}
	
		.st9{clip-path:url(#SVGID_00000162354064691183441110000008231003390345289367_);fill:#302512;stroke:#000000;stroke-linecap:round;stroke-miterlimit:10;}
	
		.st10{clip-path:url(#SVGID_00000162354064691183441110000008231003390345289367_);fill:#FBDCB0;stroke:#000000;stroke-miterlimit:10;}
	
		.st11{clip-path:url(#SVGID_00000162354064691183441110000008231003390345289367_);fill:#FFEFD9;stroke:#000000;stroke-miterlimit:10;}
</style>
<g>
	<defs>
		<circle id="SVGID_1_" cx="32" cy="32" r="32"/>
	</defs>
	<clipPath id="SVGID_00000041996132840779879980000000845950978710924734_">
		<use xlink:href="#SVGID_1_"  style="overflow:visible;"/>
	</clipPath>
	<rect style="clip-path:url(#SVGID_00000041996132840779879980000000845950978710924734_);fill:#8DD3E7;" width="64" height="64"/>
	
		<path style="clip-path:url(#SVGID_00000041996132840779879980000000845950978710924734_);fill:#F2CF9D;stroke:#000000;stroke-miterlimit:10;" d="
		M70.93,33.23c0,0-16.92-3.97-27.8-2.12c-9.8-3.58-56.24,4.53-56.24,4.53l8.89,34.88l70.53-0.99L70.93,33.23z"/>
	
		<path style="clip-path:url(#SVGID_00000041996132840779879980000000845950978710924734_);fill:#C7944E;stroke:#000000;stroke-linecap:round;stroke-miterlimit:10;" d="
		M18.95,23.11c0,0-4.46-4.49-5.81-1.81S18,24.99,18,24.99"/>
	
		<path style="clip-path:url(#SVGID_00000041996132840779879980000000845950978710924734_);fill:#C7944E;stroke:#000000;stroke-linecap:round;stroke-miterlimit:10;" d="
		M26.01,55.49C9.45,30.16,15.87,20.43,23.09,16.97s22.23-0.68,29.98,25.55c9.15,30.99-16.05,30-16.05,30"/>
	<path style="clip-path:url(#SVGID_00000041996132840779879980000000845950978710924734_);fill:#DBC4B1;" d="M18.43,20.56
		c14.99,20.02,12.8,33.42,12.8,33.42c-1.91,0.54-3.61,1.09-5.13,1.66l-0.09-0.14C13.33,36.1,14.13,25.85,18.43,20.56z"/>
	
		<path style="clip-path:url(#SVGID_00000041996132840779879980000000845950978710924734_);fill:none;stroke:#000000;stroke-linecap:round;stroke-miterlimit:10;" d="
		M26.01,55.49C9.45,30.16,15.87,20.43,23.09,16.97s22.23-0.68,29.98,25.55c9.15,30.99-16.05,30-16.05,30"/>
	
		<path style="clip-path:url(#SVGID_00000041996132840779879980000000845950978710924734_);fill:#C7944E;stroke:#000000;stroke-linecap:round;stroke-miterlimit:10;" d="
		M27.25,17.31c0,0,0.03-6.32-2.82-5.39s0.82,6.05,0.82,6.05"/>
	<path style="clip-path:url(#SVGID_00000041996132840779879980000000845950978710924734_);fill:#DBC4B1;" d="M37.44,71.08
		c0,0-7.66-4.84-15.43-4.81c-4.68,0.02-8.56-8.09,9.94-12.52C31.95,53.75,38.4,61.94,37.44,71.08z"/>
	
		<path style="clip-path:url(#SVGID_00000041996132840779879980000000845950978710924734_);fill:#DBC4B1;stroke:#000000;stroke-linecap:round;stroke-miterlimit:10;" d="
		M37.44,71.08c0,0-7.66-4.84-15.43-4.81c-4.68,0.02-8.56-8.09,9.94-12.52"/>
	<path style="clip-path:url(#SVGID_00000041996132840779879980000000845950978710924734_);fill:#D1B094;" d="M19.38,59.74
		c1.36,0.8,3.28,1.29,6.03,0.54c2.75-0.74,6.73-1.5,7.92,1.98c1.18,3.49-4.56,5.04-4.56,5.04c-2.11-0.61-4.43-1.04-6.77-1.03
		C19.1,66.29,16.51,63.17,19.38,59.74z"/>
	
		<path style="clip-path:url(#SVGID_00000041996132840779879980000000845950978710924734_);fill:none;stroke:#000000;stroke-linecap:round;stroke-miterlimit:10;" d="
		M37.44,71.08c0,0-7.66-4.84-15.43-4.81c-4.68,0.02-8.56-8.09,9.94-12.52"/>
	
		<circle style="clip-path:url(#SVGID_00000041996132840779879980000000845950978710924734_);fill:#211A0C;stroke:#000000;stroke-width:0.25;stroke-linecap:round;stroke-miterlimit:10;" cx="30.8" cy="63.17" r="1"/>
	
		<ellipse transform="matrix(0.9977 -0.068 0.068 0.9977 -4.2259 2.2787)" style="clip-path:url(#SVGID_00000041996132840779879980000000845950978710924734_);fill:#F0EBE6;" cx="31.36" cy="63.21" rx="0.14" ry="0.36"/>
	
		<path style="clip-path:url(#SVGID_00000041996132840779879980000000845950978710924734_);fill:#302512;stroke:#000000;stroke-linecap:round;stroke-miterlimit:10;" d="
		M18.58,60.93c0,0,2.25,2.09,1.67,4.95C18.54,65.09,17.48,63.16,18.58,60.93z"/>
	
		<path style="clip-path:url(#SVGID_00000041996132840779879980000000845950978710924734_);fill:#DBC4B1;stroke:#000000;stroke-linecap:round;stroke-miterlimit:10;" d="
		M37.45,68.33c0,0,2.08,1.5,1.5,3.21c-0.57,1.71-3.31,2.83-4.15,0.2c-0.52-1.62-0.51-2.57-0.51-2.57"/>
	
		<path style="clip-path:url(#SVGID_00000041996132840779879980000000845950978710924734_);fill:#C7944E;stroke:#000000;stroke-linecap:round;stroke-miterlimit:10;" d="
		M32.47,45.23c0,0-4.25-4.35-5.43-2.73c-1.18,1.61,4.45,4.08,4.45,4.08"/>
	
		<path style="clip-path:url(#SVGID_00000041996132840779879980000000845950978710924734_);fill:#FBDCB0;stroke:#000000;stroke-miterlimit:10;" d="
		M-7.74,37.79c0,0,12-1.9,24.15-0.73c12.15,1.17,20.27,3.02,32.14,0.73s25.34-1.47,25.34-1.47l4.66,41.22l-96.43,1.55L-7.74,37.79z"
		/>
	
		<path style="clip-path:url(#SVGID_00000041996132840779879980000000845950978710924734_);fill:#FFEFD9;stroke:#000000;stroke-miterlimit:10;" d="
		M-3.32,55.81c0,0,19.47-0.99,35.61-4.71s40.1-1.51,40.1-1.51l-0.6,21.71l-81.37,2L-3.32,55.81z"/>
</g>
<g>
</g>
<g>
</g>
<g>
</g>
<g>
</g>
<g>
</g>
<g>
</g>
<g>
</g>
<g>
</g>
<g>
</g>
<g>
</g>
<g>
</g>
<g>
</g>
<g>
</g>
<g>
</g>
<g>
</g>
</svg>
